HIERARCHY
ROOT Hips
{
  OFFSET 179.979 97.3047 303.174
  CHANNELS 6 Xposition Yposition Zposition Zrotation Xrotation Yrotation
  JOINT Spine
  {
    OFFSET 0.000859786 9.92346 -1.22733
    CHANNELS 3 Zrotation Xrotation Yrotation
    JOINT Spine1
    {
      OFFSET 0 11.732 0
      CHANNELS 3 Zrotation Xrotation Yrotation
      JOINT Spine2
      {
        OFFSET 0 13.4588 0
        CHANNELS 3 Zrotation Xrotation Yrotation
        JOINT Neck
        {
          OFFSET 2.54812e-05 15.0278 0.877907
          CHANNELS 3 Zrotation Xrotation Yrotation
          JOINT Head
          {
            OFFSET 0 10.3218 3.14243
            CHANNELS 3 Zrotation Xrotation Yrotation
            End Site
            {
              OFFSET 0 0 0
            }
          }
        }
        JOINT LeftShoulder
        {
          OFFSET 6.10582 9.10629 0.757062
          CHANNELS 3 Zrotation Xrotation Yrotation
          JOINT LeftArm
          {
            OFFSET 0 12.9223 0
            CHANNELS 3 Zrotation Xrotation Yrotation
            JOINT LeftForeArm
            {
              OFFSET 0 27.4047 0
              CHANNELS 3 Zrotation Xrotation Yrotation
              JOINT LeftHand
              {
                OFFSET -1.28204e-05 27.6145 0
                CHANNELS 3 Zrotation Xrotation Yrotation
                End Site
                {
                  OFFSET 0 0 0
                }
              }
            }
          }
        }
        JOINT RightShoulder
        {
          OFFSET -6.1057 9.10638 0.757076
          CHANNELS 3 Zrotation Xrotation Yrotation
          JOINT RightArm
          {
            OFFSET 0 12.9223 0
            CHANNELS 3 Zrotation Xrotation Yrotation
            JOINT RightForeArm
            {
              OFFSET 0 27.4047 0
              CHANNELS 3 Zrotation Xrotation Yrotation
              JOINT RightHand
              {
                OFFSET 1.28428e-05 27.6145 1.44975e-05
                CHANNELS 3 Zrotation Xrotation Yrotation
                End Site
                {
                  OFFSET 0 0 0
                }
              }
            }
          }
        }
      }
    }
  }
  JOINT LeftUpLeg
  {
    OFFSET 9.12387 -6.65719 -0.0554031
    CHANNELS 3 Zrotation Xrotation Yrotation
    JOINT LeftLeg
    {
      OFFSET 0 40.5994 0
      CHANNELS 3 Zrotation Xrotation Yrotation
      JOINT LeftFoot
      {
        OFFSET 0 42.099 0
        CHANNELS 3 Zrotation Xrotation Yrotation
        JOINT LeftToeBase
        {
          OFFSET 0 15.7216 0
          CHANNELS 3 Zrotation Xrotation Yrotation
          End Site
          {
            OFFSET 0 0 0
          }
        }
      }
    }
  }
  JOINT RightUpLeg
  {
    OFFSET -9.12503 -6.6556 -0.0553527
    CHANNELS 3 Zrotation Xrotation Yrotation
    JOINT RightLeg
    {
      OFFSET 0 40.5994 0
      CHANNELS 3 Zrotation Xrotation Yrotation
      JOINT RightFoot
      {
        OFFSET 0 42.099 0
        CHANNELS 3 Zrotation Xrotation Yrotation
        JOINT RightToeBase
        {
          OFFSET 0 15.7216 0
          CHANNELS 3 Zrotation Xrotation Yrotation
          End Site
          {
            OFFSET 0 0 0
          }
        }
      }
    }
  }
}
MOTION
Frames:	17
Frame Time:	0.0333333
111.76 12.1956 100.248 -68.4045 -37.516 126.563 -3.26541 -5.15095 -1.84056 -6.46758 3.70356 -2.78672 -6.13945 10.2903 -2.82883 -3.54929 4.18475 22.3369 -10.3264 -25.8744 22.104 -97.3507 -1.23773 92.3329 118.129 23.6327 -29.3729 89.4446 -6.24072 0.853263 -0.446272 -11.0333 96.7426 106.594 -16.0788 -89.9556 -56.3969 40.4871 90.4185 -116.723 4.27975 -0.190733 -15.9515 -12.3653 -49.6307 -135.839 21.0158 -65.7449 170.58 -75.0396 157.631 20.3318 67.4402 -24.9836 -0.965272 26.367 -3.60229 172.889 -15.8003 -13.8243 13.2027 -22.357 33.1249 -57.4701 66.4722 58.66 0.963537 26.3682 3.55537 
111.739 12.1568 100.142 -68.5187 -37.517 126.315 -3.23987 -5.18946 -1.81641 -6.41757 3.62526 -2.74754 -6.09411 10.2121 -2.78862 -3.3628 4.27468 22.2505 -10.315 -25.9874 22.0593 -97.2934 -1.23809 92.3319 118.139 23.8511 -29.24 89.4667 -6.22089 0.854852 -0.324556 -11.3378 97.6188 106.48 -16.2339 -89.919 -56.553 40.6115 90.322 -116.804 4.29897 -0.19375 -15.9002 -12.3096 -49.5661 -135.952 20.7864 -65.5843 170.797 -75.2182 158.391 19.2915 67.5437 -24.0107 -0.965272 26.367 -3.60229 172.723 -15.7336 -13.5007 13.1327 -22.3293 32.999 -57.1475 66.466 58.3373 0.963537 26.3682 3.55537 
111.766 12.1151 100.044 -68.6976 -37.5224 126.05 -3.22385 -5.26005 -1.78976 -6.38679 3.48268 -2.70251 -6.06876 10.0698 -2.74216 -3.20793 4.06363 22.1239 -10.2283 -25.9313 21.973 -97.2943 -1.18234 92.3403 117.945 24.1528 -29.1843 89.5866 -6.13711 0.861792 -0.289769 -11.4201 98.2328 106.462 -16.4109 -89.8758 -56.724 40.7491 90.0358 -116.884 4.28947 -0.196405 -15.8495 -12.2169 -49.6806 -136.074 20.6269 -65.3989 171.041 -75.4414 159.193 18.2229 67.5926 -22.9544 -0.965272 26.367 -3.60229 172.571 -15.5994 -13.262 13.0907 -22.3013 32.9487 -56.7091 66.3615 57.8601 0.963537 26.3682 3.55537 
111.8 12.0714 99.9627 -68.8283 -37.5089 125.85 -3.19853 -5.34554 -1.76964 -6.33735 3.31066 -2.67383 -6.02281 9.89795 -2.71211 -2.88926 3.70155 21.9919 -10.4093 -25.7145 21.9288 -97.4271 -1.04669 92.377 117.488 24.5177 -29.1995 89.7593 -5.99092 0.874326 -0.26663 -11.4636 98.7638 106.481 -16.6424 -89.8201 -57.0249 40.8351 89.5453 -116.908 4.266 -0.197888 -15.8008 -12.0931 -49.9795 -136.182 20.5052 -65.2958 171.228 -75.6142 159.657 17.6598 67.5445 -22.3641 -0.965272 26.367 -3.60229 172.45 -15.5031 -13.1054 13.0593 -22.3057 32.8916 -56.299 66.2683 57.4166 0.963537 26.3682 3.55537 
111.849 12.0323 99.8994 -68.854 -37.3545 125.748 -3.17853 -5.41558 -1.76316 -6.29806 3.17034 -2.67006 -5.9841 9.75767 -2.70749 -2.565 3.32741 21.7201 -10.6177 -25.7729 21.7201 -97.6764 -0.885876 92.4324 116.8 24.9144 -29.2878 89.9971 -5.77746 0.889085 -0.210498 -11.5573 99.2393 106.497 -16.8852 -89.7583 -57.5123 40.853 88.9313 -116.841 4.2392 -0.197385 -15.7824 -11.9685 -50.4112 -136.401 20.2958 -65.1919 171.387 -75.7737 159.814 17.5977 67.4506 -22.2693 -0.965272 26.367 -3.60229 172.263 -15.605 -13.1348 13.0829 -22.2305 32.906 -55.9821 66.1872 57.1346 0.963537 26.3682 3.55537 
111.903 12.0048 99.8562 -68.8191 -37.1564 125.743 -3.14286 -5.48334 -1.78726 -6.22664 3.03614 -2.7315 -5.90563 9.62312 -2.76897 -2.39828 2.77956 21.3816 -10.1571 -26.0192 21.3932 -97.9452 -0.744824 92.4877 115.967 25.2996 -29.4881 90.2953 -5.52119 0.907238 -0.103291 -11.6632 99.6585 106.417 -17.1541 -89.6938 -58.282 40.8125 88.2381 -116.672 4.18501 -0.192471 -15.809 -11.7734 -51.0666 -136.665 20.1199 -65.1266 171.417 -75.8989 159.55 17.9805 67.3315 -22.7072 -0.965272 26.367 -3.60229 172.094 -15.8096 -13.1757 13.0923 -22.1074 32.9502 -55.7551 66.1153 57.0364 0.963537 26.3682 3.55537 
111.926 11.9746 99.8413 -68.693 -37.0356 125.775 -3.06583 -5.56726 -1.82975 -6.07243 2.87044 -2.84151 -5.73877 9.45677 -2.87934 -1.78705 2.07247 20.9224 -10.0647 -26.0257 21.0624 -98.2663 -0.584017 92.5535 114.896 25.6457 -29.7664 90.6311 -5.19256 0.928961 0.105631 -11.7518 99.9244 106.208 -17.3957 -89.6398 -59.4307 40.8027 87.5355 -116.461 4.12462 -0.238977 -15.8131 -11.6073 -51.9891 -136.765 19.8883 -65.1258 171.29 -75.9394 159.216 18.2269 67.3284 -23.0939 -0.965272 26.367 -3.60229 172.03 -15.9948 -13.2193 13.1162 -22.0504 32.9653 -55.5611 66.0869 56.9554 0.963537 26.3682 3.55537 
111.936 11.9596 99.8385 -68.5748 -36.8845 125.741 -2.96905 -5.66793 -1.88784 -5.87882 2.67167 -2.98854 -5.52826 9.25716 -3.0269 -0.747186 1.25833 20.3039 -10.4066 -26.0631 20.6559 -98.499 -0.475404 92.6005 113.675 25.986 -30.2703 91.0579 -4.78084 0.956342 0.528527 -11.9355 99.9906 105.959 -17.6699 -89.5798 -60.7773 40.5003 86.5744 -115.981 3.98326 -0.165697 -15.8286 -11.4803 -53.162 -136.891 19.5791 -65.0601 171.193 -75.9897 159.197 18.0217 67.4571 -23.0559 -0.965272 26.367 -3.60229 171.905 -16.1635 -13.2804 13.1565 -22.013 32.9712 -55.5598 66.0906 56.9636 0.963537 26.3682 3.55537 
111.922 11.9498 99.8305 -68.3773 -36.6245 125.724 -2.84457 -5.76282 -1.93887 -5.63051 2.48358 -3.1283 -5.26385 9.0682 -3.16703 0.335467 0.161513 19.4256 -10.5637 -26.1036 19.9727 -98.7161 -0.247467 92.6655 112.226 26.3565 -30.8125 91.6263 -4.44826 0.985958 1.09924 -12.0811 99.91 105.889 -18.3237 -89.4236 -62.744 39.9682 85.3909 -115.381 3.88151 -0.173916 -15.886 -11.1047 -54.5679 -137.115 19.1678 -64.8241 171.209 -76.0609 159.421 17.582 67.5771 -22.7594 -0.965272 26.367 -3.60229 171.682 -16.4672 -13.3583 13.2305 -21.9338 33.0034 -55.7766 66.1168 57.1372 0.963537 26.3682 3.55537 
111.903 11.939 99.8127 -68.1425 -36.2544 125.706 -2.70194 -5.85248 -2.00069 -5.34608 2.30592 -3.29363 -4.96039 8.88944 -3.33298 1.63534 -1.44355 18.4061 -10.9862 -25.5332 19.1975 -98.9802 -0.0273739 92.736 110.578 26.7384 -31.2193 92.3034 -4.2675 1.01456 1.92044 -12.2393 99.744 105.724 -18.9852 -89.2698 -64.8372 39.3698 84.0614 -114.701 3.73506 -0.136616 -15.9654 -10.641 -56.1724 -137.435 18.6447 -64.4414 171.331 -76.1763 159.936 16.8561 67.6756 -22.0793 -0.965272 26.367 -3.60229 171.356 -16.8639 -13.4865 13.3442 -21.8173 33.1066 -56.0312 66.0911 57.3233 0.963537 26.3682 3.55537 
111.876 11.9267 99.7967 -67.8908 -35.858 125.7 -2.54071 -5.95433 -2.09029 -5.02472 2.10435 -3.51947 -4.61296 8.68629 -3.55979 2.54864 -3.10825 17.3466 -10.9398 -24.9462 18.2757 -99.3937 0.112504 92.8143 108.698 27.201 -31.5187 93.0789 -4.05536 1.04758 2.84436 -12.506 99.6243 105.407 -19.3661 -89.1919 -66.8289 38.8598 82.6801 -114.012 3.58889 -0.125612 -16.1146 -10.2391 -57.7958 -137.766 18.0925 -63.9783 171.482 -76.3198 160.53 15.9022 67.7616 -21.2786 -0.965272 26.367 -3.60229 171.013 -17.2715 -13.6407 13.4981 -21.7016 33.2951 -56.2927 66.0219 57.5465 0.963537 26.3682 3.55537 
111.858 11.9151 99.7926 -67.6243 -35.4209 125.756 -2.37497 -6.04092 -2.18577 -4.69461 1.93267 -3.75708 -4.25543 8.51283 -3.79852 3.45888 -5.05049 16.1066 -10.9217 -24.2495 17.1429 -99.7647 0.317993 92.8992 106.628 27.6623 -31.7218 94.0086 -3.80139 1.08732 3.60585 -12.786 99.6627 105.13 -19.7385 -89.1163 -68.8092 38.3199 81.2927 -113.307 3.44675 -0.10833 -16.289 -9.93058 -59.2899 -138.139 17.5961 -63.4619 171.711 -76.444 161.213 15.1588 67.8941 -20.5092 -0.965272 26.367 -3.60229 170.703 -17.7147 -13.7036 13.6051 -21.5965 33.511 -56.5271 65.9276 57.7845 0.963537 26.3682 3.55537 
111.851 11.9116 99.8113 -67.3368 -34.9747 125.994 -2.21148 -6.10211 -2.31112 -4.36815 1.81208 -4.05237 -3.89484 8.3899 -4.09578 4.4146 -7.4699 14.6751 -10.9637 -23.1475 15.8056 -100.067 0.510403 92.9736 104.568 28.0996 -31.99 95.0229 -3.54337 1.13023 4.18265 -13.0002 99.7624 104.87 -20.1624 -89.0294 -70.9156 37.7943 80.0115 -112.603 3.29912 -0.0932761 -16.4242 -9.61408 -60.6701 -138.537 17.2854 -62.759 171.967 -76.6504 161.815 14.5794 67.9324 -19.8632 -0.965272 26.367 -3.60229 170.47 -18.1976 -13.5661 13.7228 -21.5015 33.7669 -56.7496 65.8237 58.0638 0.963537 26.3682 3.55537 
111.904 11.912 99.8369 -67.0594 -34.4393 126.275 -2.08292 -6.14022 -2.43526 -4.11116 1.73753 -4.33513 -3.60514 8.31292 -4.38068 4.93668 -10.0424 12.7617 -10.5066 -22.0371 13.8724 -100.336 0.717578 93.0472 102.527 28.5144 -32.1542 96.0101 -3.33969 1.17073 4.66334 -13.2054 99.7156 104.721 -20.5705 -88.9418 -72.9539 37.3149 78.8054 -111.92 3.15721 -0.0782565 -16.499 -9.20266 -61.9455 -139.01 16.9602 -61.8121 172.243 -77.053 162.286 13.755 68.1318 -19.5918 -0.965272 26.367 -3.60229 170.248 -18.7498 -13.3931 13.7896 -21.364 34.0656 -56.9155 65.6594 58.3237 0.963537 26.3682 3.55537 
111.979 11.9002 99.8963 -66.7633 -33.9686 126.661 -1.96555 -6.17815 -2.56294 -3.87661 1.66313 -4.62193 -3.33737 8.23593 -4.66962 4.48179 -12.2968 10.1335 -8.92383 -21.2165 11.047 -100.675 1.01218 93.1474 100.392 28.935 -32.19 97.0016 -3.13748 1.21147 5.07627 -13.3438 99.5973 104.578 -20.8901 -88.8756 -74.7482 36.9807 77.6832 -111.298 3.00876 -0.0651131 -16.4984 -8.85656 -63.0388 -139.355 16.7566 -60.559 172.623 -77.7348 162.778 12.8949 68.2885 -19.4188 -0.965272 26.367 -3.60229 170.194 -19.2791 -13.1554 13.8322 -21.2598 34.4323 -57.0747 65.4744 58.6756 0.963537 26.3682 3.55537 
112.1 11.8872 99.9713 -66.5173 -33.4696 127.033 -1.87666 -6.20667 -2.67731 -3.69886 1.60739 -4.87446 -3.13043 8.17776 -4.92401 3.57859 -14.0064 6.81424 -6.98994 -20.463 7.51003 -101.117 1.29774 93.2625 98.2712 29.3164 -32.0758 97.9518 -2.93496 1.25092 5.47089 -13.391 99.488 104.474 -21.2541 -88.7973 -76.4445 36.741 76.6556 -110.706 2.87004 -0.0521491 -16.5416 -8.55292 -64.0814 -139.733 16.6181 -58.9443 173.172 -78.9827 163.453 12.398 68.3496 -19.1624 -0.965272 26.367 -3.60229 170.139 -19.833 -13.0017 13.8591 -21.0575 34.852 -57.1628 65.224 59.0107 0.963537 26.3682 3.55537 
112.219 11.8672 100.063 -66.2644 -32.9573 127.365 -1.80512 -6.20956 -2.76753 -3.55521 1.60208 -5.07332 -2.96373 8.17046 -5.12474 1.73909 -14.6728 2.71336 -4.23981 -20.523 3.08242 -101.557 1.49765 93.3635 96.3437 29.5981 -31.9172 98.8358 -2.73496 1.28814 5.86291 -13.3855 99.3362 104.363 -21.6378 -88.7153 -78.0828 36.5789 75.8128 -110.193 2.75519 -0.0405381 -16.6706 -8.27143 -65.1818 -140.051 16.3991 -57.0878 173.829 -80.6985 164.143 12.6538 68.5644 -19.2456 -0.965272 26.367 -3.60229 170.049 -20.4044 -13.0486 13.9758 -20.8028 35.3559 -57.4394 64.9454 59.4511 0.963537 26.3682 3.55537 
